<svg version="1.1" preserveAspectRatio="none" xmlns="http://www.w3.org/2000/svg" width="500" height="500" viewBox="0 0 500 500"><rect width="100%" height="100%" fill="#F9F9F9" fill-opacity="1"/><svg viewBox="196.6921 646.7647 360.3402 332.2921" width="333" height="307.0800018982062" x="83.5px" y="96.46px" xmlns="http://www.w3.org/2000/svg" xmlns:xlink="http://www.w3.org/1999/xlink" preserveAspectRatio="none"><defs></defs><style>.companyName {fill:#F3A7DC;fill-opacity:1;}.icon1 {fill:#DBDBDB;fill-opacity:1;}.icon2 {fill:#F3A7DC;fill-opacity:1;}.icon3 {fill:#E7E7E7;fill-opacity:1;}.icon3-str {stroke:#E7E7E7;stroke-opacity:1;}.text {fill:#A0A0A0;fill-opacity:1;}</style><g opacity="1" transform="rotate(0 243.1152 951.0568)">
<svg width="267.494" height="28" x="243.1152" y="951.0568" version="1.1" preserveAspectRatio="none" viewBox="4.16 -31 309.12 32.36">
  <g transform="matrix(1 0 0 1 0 0)" class="text"><path id="id-6izo4zJp12" d="M25.48-28.92L29.36-28.92L29.36 0.96L29.24 0.96L8-20.60L8.08 0L4.16 0L4.16-29.80L4.36-29.80L25.56-8L25.48-28.92Z M48.52-2.80Q50.60-2.80 52.56-4.24L52.56-4.24L54.28-1.48Q52.96-0.60 51.42-0.10Q49.88 0.40 48.44 0.40L48.44 0.40Q45.68 0.40 43.62-0.74Q41.56-1.88 40.44-3.88Q39.32-5.88 39.32-8.40L39.32-8.40Q39.32-10.84 40.54-12.86Q41.76-14.88 43.88-16.06Q46-17.24 48.52-17.24L48.52-17.24Q51.76-17.24 53.94-15.34Q56.12-13.44 56.92-10.04L56.92-10.04L43.80-5.44Q44.52-4.20 45.74-3.50Q46.96-2.80 48.52-2.80L48.52-2.80ZM48.24-14.28Q45.96-14.28 44.48-12.68Q43-11.08 43-8.60L43-8.60Q43-8 43.04-7.68L43.04-7.68L52.68-11.24Q52.08-12.60 50.98-13.44Q49.88-14.28 48.24-14.28L48.24-14.28Z M84.40-16.56L88.08-16.56L80.44 1L75.12-10.36L70.28 1L62.60-16.56L66.28-16.56L70.72-6.52L73.80-13.72L72.48-16.56L75.72-16.56L80.20-6.28L84.40-16.56Z M131.56-28.80L120.16 1.28L113.40-16L106 1.36L94.48-28.80L99-28.80L106.48-7.76L111.48-20.88L108.40-28.80L112.24-28.80L120.28-8.20L127.40-28.80L131.56-28.80Z M150.20-16.56L153.64-16.56L153.64 0L149.92 0L149.92-2.72Q149.04-1.56 147.36-0.58Q145.68 0.40 143.56 0.40L143.56 0.40Q141.20 0.40 139.30-0.62Q137.40-1.64 136.30-3.60Q135.20-5.56 135.20-8.28L135.20-8.28Q135.20-11 136.34-13.02Q137.48-15.04 139.42-16.14Q141.36-17.24 143.72-17.24L143.72-17.24Q145.84-17.24 147.40-16.32Q148.96-15.40 149.92-13.92L149.92-13.92L150.20-16.56ZM144.56-2.68Q146.60-2.68 148.06-3.82Q149.52-4.96 149.92-6.92L149.92-6.92L149.92-10.20Q149.44-11.96 147.92-13.06Q146.40-14.16 144.44-14.16L144.44-14.16Q142.96-14.16 141.70-13.44Q140.44-12.72 139.70-11.42Q138.96-10.12 138.96-8.48L138.96-8.48Q138.96-6.88 139.72-5.56Q140.48-4.24 141.76-3.46Q143.04-2.68 144.56-2.68L144.56-2.68Z M167.72-12.64Q168.36-14 169.54-15.04Q170.72-16.08 172.04-16.64Q173.36-17.20 174.36-17.24L174.36-17.24L174.20-13.52Q172.40-13.60 170.94-12.80Q169.48-12 168.66-10.58Q167.84-9.16 167.84-7.56L167.84-7.56L167.84 0L164.12 0L164.12-16.56L167.44-16.56L167.72-12.64Z M190.20-2.80Q192.28-2.80 194.24-4.24L194.24-4.24L195.96-1.48Q194.64-0.60 193.10-0.10Q191.56 0.40 190.12 0.40L190.12 0.40Q187.36 0.40 185.30-0.74Q183.24-1.88 182.12-3.88Q181-5.88 181-8.40L181-8.40Q181-10.84 182.22-12.86Q183.44-14.88 185.56-16.06Q187.68-17.24 190.20-17.24L190.20-17.24Q193.44-17.24 195.62-15.34Q197.80-13.44 198.60-10.04L198.60-10.04L185.48-5.44Q186.20-4.20 187.42-3.50Q188.64-2.80 190.20-2.80L190.20-2.80ZM189.92-14.28Q187.64-14.28 186.16-12.68Q184.68-11.08 184.68-8.60L184.68-8.60Q184.68-8 184.72-7.68L184.72-7.68L194.36-11.24Q193.76-12.60 192.66-13.44Q191.56-14.28 189.92-14.28L189.92-14.28Z M211.92 0.36Q210.08 0.36 208.42-0.28Q206.76-0.92 205.72-2.16L205.72-2.16L207.32-4.32Q208.32-3.36 209.42-2.84Q210.52-2.32 211.60-2.32L211.60-2.32Q212.92-2.32 213.76-2.84Q214.60-3.36 214.60-4.44L214.60-4.44Q214.60-5.28 214.08-5.80Q213.56-6.32 212.90-6.56Q212.24-6.80 210.68-7.28L210.68-7.28Q206.44-8.64 206.44-12.12L206.44-12.12Q206.44-14.20 207.98-15.68Q209.52-17.16 212.28-17.16L212.28-17.16Q214.04-17.16 215.40-16.72Q216.76-16.28 217.92-15.32L217.92-15.32L216.44-13.04Q215.80-13.72 214.82-14.12Q213.84-14.52 212.96-14.56L212.96-14.56Q211.84-14.56 211.04-14.02Q210.24-13.48 210.24-12.56L210.24-12.56Q210.24-11.80 210.76-11.30Q211.28-10.80 211.84-10.58Q212.40-10.36 214.04-9.84L214.04-9.84Q216.08-9.16 217.22-8.08Q218.36-7 218.36-5.16L218.36-5.16Q218.36-2.76 216.68-1.20Q215 0.36 211.92 0.36L211.92 0.36Z M226.36-28.92L245.56-28.92L245.56-25.20L237.80-25.20L237.80 0L233.92 0L233.92-25.20L226.36-25.20L226.36-28.92Z M258.32-2.80Q260.40-2.80 262.36-4.24L262.36-4.24L264.08-1.48Q262.76-0.60 261.22-0.10Q259.68 0.40 258.24 0.40L258.24 0.40Q255.48 0.40 253.42-0.74Q251.36-1.88 250.24-3.88Q249.12-5.88 249.12-8.40L249.12-8.40Q249.12-10.84 250.34-12.86Q251.56-14.88 253.68-16.06Q255.80-17.24 258.32-17.24L258.32-17.24Q261.56-17.24 263.74-15.34Q265.92-13.44 266.72-10.04L266.72-10.04L253.60-5.44Q254.32-4.20 255.54-3.50Q256.76-2.80 258.32-2.80L258.32-2.80ZM258.04-14.28Q255.76-14.28 254.28-12.68Q252.80-11.08 252.80-8.60L252.80-8.60Q252.80-8 252.84-7.68L252.84-7.68L262.48-11.24Q261.88-12.60 260.78-13.44Q259.68-14.28 258.04-14.28L258.04-14.28Z M288.80-1.56Q287.68-0.64 286.14-0.12Q284.60 0.40 283 0.40L283 0.40Q280.32 0.40 278.26-0.68Q276.20-1.76 275.06-3.74Q273.92-5.72 273.92-8.32L273.92-8.32Q273.92-10.88 275.12-12.86Q276.32-14.84 278.32-15.92Q280.32-17 282.64-17L282.64-17Q286.44-17 288.92-14.92L288.92-14.92L287.04-12.48Q286.24-13.08 285.20-13.50Q284.16-13.92 282.96-13.92L282.96-13.92Q281.48-13.92 280.26-13.18Q279.04-12.44 278.34-11.16Q277.64-9.88 277.64-8.32L277.64-8.32Q277.64-6.76 278.38-5.48Q279.12-4.20 280.40-3.44Q281.68-2.68 283.32-2.68L283.32-2.68Q285.36-2.68 286.88-3.88L286.88-3.88L288.80-1.56Z M307.88-17.20Q310.20-17.20 311.72-15.82Q313.24-14.44 313.28-12.24L313.28-12.24L313.28 0L309.52 0L309.52-10.96Q309.44-12.36 308.68-13.16Q307.92-13.96 306.40-14L306.40-14Q304.96-14 303.80-13.20Q302.64-12.40 301.98-10.96Q301.32-9.52 301.32-7.76L301.32-7.76L301.32 0L297.60 0L297.60-31L301.24-31L301.24-13.56Q302.16-15.20 303.90-16.20Q305.64-17.20 307.88-17.20L307.88-17.20Z"/></g>
</svg>
</g><g opacity="1" transform="rotate(0 196.6921 833.0568)">
<svg width="360.3402" height="100" x="196.6921" y="833.0568" version="1.1" preserveAspectRatio="none" viewBox="1.04 -28 102.47999999999999 28.44">
  <g transform="matrix(1 0 0 1 0 0)" class="companyName"><path id="id-D6z1nYkh3" d="M3.48-26Q3.48-26.44 3.30-26.60Q3.12-26.76 2.52-26.88L2.52-26.88L1.04-27.20L1.04-28L12.12-28L25-11.76L25-26.04Q25-26.48 24.82-26.62Q24.64-26.76 24.08-26.88L24.08-26.88L22.64-27.20L22.64-28L28.72-28L28.72-27.20L27.24-26.88Q26.64-26.76 26.46-26.60Q26.28-26.44 26.28-26L26.28-26L26.28 0L24.84 0L4.76-25.40L4.76-1.96Q4.76-1.52 4.94-1.38Q5.12-1.24 5.68-1.12L5.68-1.12L7.12-0.80L7.12 0L1.04 0L1.04-0.80L2.52-1.12Q3.12-1.24 3.30-1.40Q3.48-1.56 3.48-2L3.48-2L3.48-26Z M62.36 0.44L61.08 0.44L52.76-20.24L45.16 0.44L43.88 0.44L33.24-26.08Q33.04-26.60 32.82-26.78Q32.60-26.96 32.12-27.04L32.12-27.04L30.64-27.20L30.64-28L43.76-28L43.76-27.20L42.20-27.04Q41.64-26.96 41.64-26.40L41.64-26.40Q41.64-26.28 41.72-25.96L41.72-25.96L47.80-10.12L52.08-21.96L50.44-26.08Q50.24-26.60 50.02-26.78Q49.80-26.96 49.32-27.04L49.32-27.04L47.92-27.20L47.92-28L61.04-28L61.04-27.20L59.40-27.04Q58.84-26.96 58.84-26.40L58.84-26.40Q58.84-26.28 58.92-25.96L58.92-25.96L65-10.12L70.80-26.12Q70.92-26.44 70.92-26.56L70.92-26.56Q70.92-27 70.32-27.04L70.32-27.04L68.64-27.20L68.64-28L74.72-28L74.72-27.20L73.24-27.04Q72.76-27 72.56-26.80Q72.36-26.60 72.12-26.08L72.12-26.08L62.36 0.44Z M94.16-2Q94.16-1.56 94.34-1.40Q94.52-1.24 95.12-1.12L95.12-1.12L96.60-0.80L96.60 0L83.56 0L83.56-0.80L85.04-1.12Q85.64-1.24 85.82-1.40Q86.00-1.56 86.00-2L86.00-2L86.00-26.88L85.08-26.88Q82.64-26.88 81.30-26.08Q79.96-25.28 79.26-24Q78.56-22.72 77.52-19.92L77.52-19.92L76.64-19.92L76.64-28L103.52-28L103.52-19.92L102.64-19.92Q101.60-22.72 100.90-24Q100.20-25.28 98.86-26.08Q97.52-26.88 95.08-26.88L95.08-26.88L94.16-26.88L94.16-2Z"/></g>
</svg>
</g><g opacity="1" transform="rotate(0 286.7772 646.7647)">
<svg width="180.1701" height="156.2921" x="286.7772" y="646.7647" version="1.1" preserveAspectRatio="none" viewBox="17 28 166 144">
  <g transform="matrix(1 0 0 1 0 0)" ><g><path d="M169.8 158.1H30.2c-7.1 0-13.2-6-13.2-13.7V41.7C17 34 22.8 28 30.2 28h139.6c7.1 0 13.2 6 13.2 13.7v102.7c-.3 7.6-6.1 13.7-13.2 13.7zM30.2 33.3c-4.2 0-7.9 3.7-7.9 8.4v102.7c0 4.7 3.4 8.4 7.9 8.4h139.6c4.2 0 7.9-3.7 7.9-8.4V41.7c0-4.7-3.4-8.4-7.9-8.4H30.2z" data-color="1" class="icon1"></path><path d="M148.9 172H51.1c-1.6 0-2.6-1.1-2.6-2.6 0-1.6 1.1-2.6 2.6-2.6h97.8c1.6 0 2.6 1.1 2.6 2.6s-1.3 2.6-2.6 2.6z" data-color="1" class="icon1"></path><path d="M100 172c-1.6 0-2.6-1.1-2.6-2.6v-13.9c0-1.6 1.1-2.6 2.6-2.6s2.6 1.1 2.6 2.6v13.9c0 1.3-1 2.6-2.6 2.6z" data-color="1" class="icon1"></path><path d="M100 147.6c-3.4 0-6.1-2.6-6.1-6s2.6-6 6.1-6c3.4 0 6.1 2.6 6.1 6 0 3.3-2.7 6-6.1 6zm0-6.9c-.5 0-.8.3-.8.8s.3.8.8.8.8-.3.8-.8-.3-.8-.8-.8z" data-color="1" class="icon1"></path><path d="M180.1 130.5H19.9c-1.6 0-2.6-1.1-2.6-2.6 0-1.6 1.1-2.6 2.6-2.6h160.4c1.6 0 2.6 1.1 2.6 2.6.1 1.5-1.2 2.6-2.8 2.6z" data-color="1" class="icon1"></path></g></g>
</svg>
</g></svg></svg>